<svg viewBox="0 0 100 100" xmlns="http://www.w3.org/2000/svg"><path d="m79 90h-58c-6.1 0-11-4.9-11-11v-58c0-6.1 4.9-11 11-11h58c6.1 0 11 4.9 11 11v58c0 6.1-4.9 11-11 11z" fill="#333"/><g fill="#e0e0e0"><path d="m71.1 37.2h-42.2c-2.2 0-3.9-1.9-3.9-4.3s1.7-4.3 3.9-4.3h42.2c2.2 0 3.9 1.9 3.9 4.3s-1.7 4.3-3.9 4.3z"/><path d="m71.1 54.3h-42.2c-2.2 0-3.9-1.9-3.9-4.3s1.7-4.3 3.9-4.3h42.2c2.2 0 3.9 1.9 3.9 4.3s-1.7 4.3-3.9 4.3z"/><path d="m71.1 71.3h-42.2c-2.2 0-3.9-1.9-3.9-4.3s1.7-4.3 3.9-4.3h42.2c2.2 0 3.9 1.9 3.9 4.3s-1.7 4.3-3.9 4.3z"/></g></svg>