<svg enable-background="new 0 0 420.8 420.8" viewBox="0 0 420.8 420.8" xmlns="http://www.w3.org/2000/svg"><path d="m406.8 96.4c-8.4-8.8-20-14-33.2-14h-66.4v-.8c0-10-4-19.6-10.8-26-6.8-6.8-16-10.8-26-10.8h-120c-10.4 0-19.6 4-26.4 10.8s-10.8 16-10.8 26v.8h-66c-13.2 0-24.8 5.2-33.2 14-8.4 8.4-14 20.4-14 33.2v199.2c0 13.2 5.2 24.8 14 33.2 8.4 8.4 20.4 14 33.2 14h326.4c13.2 0 24.8-5.2 33.2-14 8.4-8.4 14-20.4 14-33.2v-199.2c0-13.2-5.2-24.8-14-33.2zm-6.8 232.4h-.4c0 7.2-2.8 13.6-7.6 18.4s-11.2 7.6-18.4 7.6h-326.4c-7.2 0-13.6-2.8-18.4-7.6s-7.6-11.2-7.6-18.4v-199.2c0-7.2 2.8-13.6 7.6-18.4s11.2-7.6 18.4-7.6h77.2c6 0 10.8-4.8 10.8-10.8v-11.6c0-4.4 1.6-8.4 4.4-11.2s6.8-4.4 11.2-4.4h119.6c4.4 0 8.4 1.6 11.2 4.4s4.4 6.8 4.4 11.2v11.6c0 6 4.8 10.8 10.8 10.8h77.2c7.2 0 13.6 2.8 18.4 7.6s7.6 11.2 7.6 18.4z"/><path d="m210.4 130.8c-27.2 0-52 11.2-69.6 28.8-18 18-28.8 42.4-28.8 69.6s11.2 52 28.8 69.6c18 18 42.4 28.8 69.6 28.8s52-11.2 69.6-28.8c18-18 28.8-42.4 28.8-69.6s-11.2-52-28.8-69.6-42.4-28.8-69.6-28.8zm54.4 153.2c-14 13.6-33.2 22.4-54.4 22.4s-40.4-8.8-54.4-22.4c-14-14-22.4-33.2-22.4-54.4s8.8-40.4 22.4-54.4c14-14 33.2-22.4 54.4-22.4s40.4 8.8 54.4 22.4c14 14 22.4 33.2 22.4 54.4.4 21.2-8.4 40.4-22.4 54.4z"/><circle cx="352.8" cy="150" r="19.6"/></svg>