<svg enable-background="new 0 0 430.23 430.23" viewBox="0 0 430.23 430.23" xmlns="http://www.w3.org/2000/svg"><path d="m217.875 159.668c-24.237 0-43.886 19.648-43.886 43.886 0 24.237 19.648 43.886 43.886 43.886 24.237 0 43.886-19.648 43.886-43.886s-19.648-43.886-43.886-43.886zm0 66.873c-12.696 0-22.988-10.292-22.988-22.988s10.292-22.988 22.988-22.988c12.696 0 22.988 10.292 22.988 22.988s-10.292 22.988-22.988 22.988z"/><path d="m392.896 59.357-285.257-32.391c-11.071-1.574-22.288 1.658-30.824 8.882-8.535 6.618-14.006 16.428-15.151 27.167l-5.224 42.841h-16.197c-22.988 0-40.229 20.375-40.229 43.363v213.681c-.579 21.921 16.722 40.162 38.644 40.741.528.014 1.057.017 1.585.01h286.824c22.988 0 43.886-17.763 43.886-40.751v-8.359c7.127-1.377 13.888-4.224 19.853-8.359 8.465-7.127 13.885-17.22 15.151-28.212l24.033-212.114c2.45-23.041-14.085-43.768-37.094-46.499zm-42.841 303.543c0 11.494-11.494 19.853-22.988 19.853h-286.824c-10.383.305-19.047-7.865-19.352-18.248-.016-.535-.009-1.07.021-1.605v-38.661l80.98-59.559c9.728-7.469 23.43-6.805 32.392 1.567l56.947 50.155c8.648 7.261 19.534 11.32 30.825 11.494 8.828.108 17.511-2.243 25.078-6.792l102.922-59.559v101.355zm0-125.91-113.894 66.351c-9.78 5.794-22.159 4.745-30.825-2.612l-57.469-50.678c-16.471-14.153-40.545-15.021-57.992-2.09l-68.963 50.155v-148.897c0-11.494 7.837-22.465 19.331-22.465h286.824c12.28.509 22.197 10.201 22.988 22.465zm59.057-133.955c-.007.069-.013.139-.021.208l-24.555 212.114c.042 5.5-2.466 10.709-6.792 14.106-2.09 2.09-6.792 3.135-6.792 4.18v-184.424c-.825-23.801-20.077-42.824-43.886-43.363h-249.729l4.702-40.751c1.02-5.277 3.779-10.059 7.837-13.584 4.582-3.168 10.122-4.645 15.674-4.18l284.735 32.914c11.488 1.091 19.918 11.29 18.827 22.78z"/></svg>